<svg xmlns="http://www.w3.org/2000/svg" viewBox="0 0 256 256" width="256" height="256"><rect width="256" height="256" fill="#000000"/><g transform="translate(112 150) rotate(40) scale(1.25)"><path d="M -10 -4 L -10 -78 L 0 -96 L 10 -78 L 10 -4 Z" fill="#FFFFFF" stroke="#FFFFFF" stroke-width="3" stroke-linejoin="round"/><line x1="0" y1="-80" x2="0" y2="-14" stroke="#000000" stroke-width="4" stroke-linecap="round"/><circle cx="0" cy="44" r="8.0" fill="#FFFFFF"/><rect x="-27" y="-4" width="54" height="12" rx="5" fill="#FFFFFF"/><rect x="-6" y="8" width="12" height="30" rx="3" fill="#FFFFFF"/><circle cx="0" cy="44" r="8" fill="#FFFFFF"/></g><path transform="translate(150 110) scale(1.1)" fill="#FFFFFF" stroke="#000000" stroke-width="7" paint-order="stroke" d="M0,14 C-6,9 -24,-2 -24,-13 C-24,-24 -12,-28 0,-17 C12,-28 24,-24 24,-13 C24,-2 6,9 0,14Z"/><line x1="58" y1="206" x2="58" y2="150" stroke="#FFFFFF" stroke-width="9" stroke-linecap="round"/><path d="M 49.0 160.7 L 58.0 150.0 L 67.0 160.7" fill="none" stroke="#FFFFFF" stroke-width="9" stroke-linecap="round" stroke-linejoin="round"/></svg>