<svg xmlns="http://www.w3.org/2000/svg" viewBox="0 0 256 256" width="256" height="256"><rect width="256" height="256" fill="#000000"/><polygon points="162.0,78.0 166.6,92.9 180.4,85.6 173.1,99.4 188.0,104.0 173.1,108.6 180.4,122.4 166.6,115.1 162.0,130.0 157.4,115.1 143.6,122.4 150.9,108.6 136.0,104.0 150.9,99.4 143.6,85.6 157.4,92.9" fill="#FFFFFF" stroke="#FFFFFF" stroke-width="5" stroke-linejoin="round"/><g transform="translate(100 138) rotate(0) scale(-7.0 7.0) translate(-13.5 -12.5)"><path d="M 5.98 4.98 h 1.04 v 1.04 h -1.04 Z M 5.98 5.98 h 1.04 v 1.04 h -1.04 Z M 5.98 6.98 h 1.04 v 1.04 h -1.04 Z M 5.98 7.98 h 1.04 v 1.04 h -1.04 Z M 5.98 8.98 h 1.04 v 1.04 h -1.04 Z M 5.98 9.98 h 1.04 v 1.04 h -1.04 Z M 5.98 13.98 h 1.04 v 1.04 h -1.04 Z M 5.98 14.98 h 1.04 v 1.04 h -1.04 Z M 5.98 15.98 h 1.04 v 1.04 h -1.04 Z M 6.98 3.98 h 1.04 v 1.04 h -1.04 Z M 6.98 4.98 h 1.04 v 1.04 h -1.04 Z M 6.98 5.98 h 1.04 v 1.04 h -1.04 Z M 6.98 6.98 h 1.04 v 1.04 h -1.04 Z M 6.98 7.98 h 1.04 v 1.04 h -1.04 Z M 6.98 8.98 h 1.04 v 1.04 h -1.04 Z M 6.98 9.98 h 1.04 v 1.04 h -1.04 Z M 6.98 10.98 h 1.04 v 1.04 h -1.04 Z M 6.98 13.98 h 1.04 v 1.04 h -1.04 Z M 6.98 14.98 h 1.04 v 1.04 h -1.04 Z M 6.98 15.98 h 1.04 v 1.04 h -1.04 Z M 6.98 16.98 h 1.04 v 1.04 h -1.04 Z M 7.98 3.98 h 1.04 v 1.04 h -1.04 Z M 7.98 4.98 h 1.04 v 1.04 h -1.04 Z M 7.98 5.98 h 1.04 v 1.04 h -1.04 Z M 7.98 6.98 h 1.04 v 1.04 h -1.04 Z M 7.98 7.98 h 1.04 v 1.04 h -1.04 Z M 7.98 8.98 h 1.04 v 1.04 h -1.04 Z M 7.98 9.98 h 1.04 v 1.04 h -1.04 Z M 7.98 10.98 h 1.04 v 1.04 h -1.04 Z M 7.98 11.98 h 1.04 v 1.04 h -1.04 Z M 7.98 12.98 h 1.04 v 1.04 h -1.04 Z M 7.98 13.98 h 1.04 v 1.04 h -1.04 Z M 7.98 14.98 h 1.04 v 1.04 h -1.04 Z M 7.98 15.98 h 1.04 v 1.04 h -1.04 Z M 7.98 16.98 h 1.04 v 1.04 h -1.04 Z M 7.98 17.98 h 1.04 v 1.04 h -1.04 Z M 7.98 18.98 h 1.04 v 1.04 h -1.04 Z M 7.98 19.98 h 1.04 v 1.04 h -1.04 Z M 8.98 3.98 h 1.04 v 1.04 h -1.04 Z M 8.98 4.98 h 1.04 v 1.04 h -1.04 Z M 8.98 5.98 h 1.04 v 1.04 h -1.04 Z M 8.98 6.98 h 1.04 v 1.04 h -1.04 Z M 8.98 7.98 h 1.04 v 1.04 h -1.04 Z M 8.98 8.98 h 1.04 v 1.04 h -1.04 Z M 8.98 9.98 h 1.04 v 1.04 h -1.04 Z M 8.98 10.98 h 1.04 v 1.04 h -1.04 Z M 8.98 11.98 h 1.04 v 1.04 h -1.04 Z M 8.98 12.98 h 1.04 v 1.04 h -1.04 Z M 8.98 13.98 h 1.04 v 1.04 h -1.04 Z M 8.98 14.98 h 1.04 v 1.04 h -1.04 Z M 8.98 15.98 h 1.04 v 1.04 h -1.04 Z M 8.98 16.98 h 1.04 v 1.04 h -1.04 Z M 8.98 17.98 h 1.04 v 1.04 h -1.04 Z M 8.98 18.98 h 1.04 v 1.04 h -1.04 Z M 8.98 19.98 h 1.04 v 1.04 h -1.04 Z M 9.98 3.98 h 1.04 v 1.04 h -1.04 Z M 9.98 4.98 h 1.04 v 1.04 h -1.04 Z M 9.98 5.98 h 1.04 v 1.04 h -1.04 Z M 9.98 6.98 h 1.04 v 1.04 h -1.04 Z M 9.98 7.98 h 1.04 v 1.04 h -1.04 Z M 9.98 8.98 h 1.04 v 1.04 h -1.04 Z M 9.98 9.98 h 1.04 v 1.04 h -1.04 Z M 9.98 10.98 h 1.04 v 1.04 h -1.04 Z M 9.98 11.98 h 1.04 v 1.04 h -1.04 Z M 9.98 12.98 h 1.04 v 1.04 h -1.04 Z M 9.98 13.98 h 1.04 v 1.04 h -1.04 Z M 9.98 14.98 h 1.04 v 1.04 h -1.04 Z M 9.98 15.98 h 1.04 v 1.04 h -1.04 Z M 9.98 16.98 h 1.04 v 1.04 h -1.04 Z M 9.98 17.98 h 1.04 v 1.04 h -1.04 Z M 9.98 18.98 h 1.04 v 1.04 h -1.04 Z M 10.98 3.98 h 1.04 v 1.04 h -1.04 Z M 10.98 4.98 h 1.04 v 1.04 h -1.04 Z M 10.98 5.98 h 1.04 v 1.04 h -1.04 Z M 10.98 6.98 h 1.04 v 1.04 h -1.04 Z M 10.98 7.98 h 1.04 v 1.04 h -1.04 Z M 10.98 8.98 h 1.04 v 1.04 h -1.04 Z M 10.98 9.98 h 1.04 v 1.04 h -1.04 Z M 10.98 10.98 h 1.04 v 1.04 h -1.04 Z M 10.98 11.98 h 1.04 v 1.04 h -1.04 Z M 10.98 12.98 h 1.04 v 1.04 h -1.04 Z M 10.98 13.98 h 1.04 v 1.04 h -1.04 Z M 10.98 14.98 h 1.04 v 1.04 h -1.04 Z M 10.98 15.98 h 1.04 v 1.04 h -1.04 Z M 10.98 16.98 h 1.04 v 1.04 h -1.04 Z M 10.98 17.98 h 1.04 v 1.04 h -1.04 Z M 11.98 3.98 h 1.04 v 1.04 h -1.04 Z M 11.98 4.98 h 1.04 v 1.04 h -1.04 Z M 11.98 5.98 h 1.04 v 1.04 h -1.04 Z M 11.98 6.98 h 1.04 v 1.04 h -1.04 Z M 11.98 7.98 h 1.04 v 1.04 h -1.04 Z M 11.98 8.98 h 1.04 v 1.04 h -1.04 Z M 11.98 9.98 h 1.04 v 1.04 h -1.04 Z M 11.98 10.98 h 1.04 v 1.04 h -1.04 Z M 11.98 11.98 h 1.04 v 1.04 h -1.04 Z M 11.98 12.98 h 1.04 v 1.04 h -1.04 Z M 11.98 13.98 h 1.04 v 1.04 h -1.04 Z M 11.98 14.98 h 1.04 v 1.04 h -1.04 Z M 11.98 15.98 h 1.04 v 1.04 h -1.04 Z M 11.98 16.98 h 1.04 v 1.04 h -1.04 Z M 11.98 17.98 h 1.04 v 1.04 h -1.04 Z M 11.98 18.98 h 1.04 v 1.04 h -1.04 Z M 11.98 19.98 h 1.04 v 1.04 h -1.04 Z M 12.98 3.98 h 1.04 v 1.04 h -1.04 Z M 12.98 4.98 h 1.04 v 1.04 h -1.04 Z M 12.98 5.98 h 1.04 v 1.04 h -1.04 Z M 12.98 6.98 h 1.04 v 1.04 h -1.04 Z M 12.98 7.98 h 1.04 v 1.04 h -1.04 Z M 12.98 8.98 h 1.04 v 1.04 h -1.04 Z M 12.98 9.98 h 1.04 v 1.04 h -1.04 Z M 12.98 10.98 h 1.04 v 1.04 h -1.04 Z M 12.98 11.98 h 1.04 v 1.04 h -1.04 Z M 12.98 12.98 h 1.04 v 1.04 h -1.04 Z M 12.98 13.98 h 1.04 v 1.04 h -1.04 Z M 12.98 14.98 h 1.04 v 1.04 h -1.04 Z M 12.98 15.98 h 1.04 v 1.04 h -1.04 Z M 12.98 16.98 h 1.04 v 1.04 h -1.04 Z M 12.98 17.98 h 1.04 v 1.04 h -1.04 Z M 12.98 18.98 h 1.04 v 1.04 h -1.04 Z M 12.98 19.98 h 1.04 v 1.04 h -1.04 Z M 13.98 3.98 h 1.04 v 1.04 h -1.04 Z M 13.98 4.98 h 1.04 v 1.04 h -1.04 Z M 13.98 5.98 h 1.04 v 1.04 h -1.04 Z M 13.98 6.98 h 1.04 v 1.04 h -1.04 Z M 13.98 7.98 h 1.04 v 1.04 h -1.04 Z M 13.98 8.98 h 1.04 v 1.04 h -1.04 Z M 13.98 9.98 h 1.04 v 1.04 h -1.04 Z M 13.98 10.98 h 1.04 v 1.04 h -1.04 Z M 13.98 11.98 h 1.04 v 1.04 h -1.04 Z M 13.98 12.98 h 1.04 v 1.04 h -1.04 Z M 13.98 13.98 h 1.04 v 1.04 h -1.04 Z M 13.98 14.98 h 1.04 v 1.04 h -1.04 Z M 13.98 15.98 h 1.04 v 1.04 h -1.04 Z M 13.98 16.98 h 1.04 v 1.04 h -1.04 Z M 13.98 17.98 h 1.04 v 1.04 h -1.04 Z M 13.98 18.98 h 1.04 v 1.04 h -1.04 Z M 14.98 3.98 h 1.04 v 1.04 h -1.04 Z M 14.98 4.98 h 1.04 v 1.04 h -1.04 Z M 14.98 5.98 h 1.04 v 1.04 h -1.04 Z M 14.98 6.98 h 1.04 v 1.04 h -1.04 Z M 14.98 7.98 h 1.04 v 1.04 h -1.04 Z M 14.98 8.98 h 1.04 v 1.04 h -1.04 Z M 14.98 9.98 h 1.04 v 1.04 h -1.04 Z M 14.98 10.98 h 1.04 v 1.04 h -1.04 Z M 14.98 11.98 h 1.04 v 1.04 h -1.04 Z M 14.98 12.98 h 1.04 v 1.04 h -1.04 Z M 14.98 13.98 h 1.04 v 1.04 h -1.04 Z M 14.98 14.98 h 1.04 v 1.04 h -1.04 Z M 14.98 15.98 h 1.04 v 1.04 h -1.04 Z M 14.98 16.98 h 1.04 v 1.04 h -1.04 Z M 14.98 17.98 h 1.04 v 1.04 h -1.04 Z M 15.98 3.98 h 1.04 v 1.04 h -1.04 Z M 15.98 4.98 h 1.04 v 1.04 h -1.04 Z M 15.98 5.98 h 1.04 v 1.04 h -1.04 Z M 15.98 6.98 h 1.04 v 1.04 h -1.04 Z M 15.98 7.98 h 1.04 v 1.04 h -1.04 Z M 15.98 8.98 h 1.04 v 1.04 h -1.04 Z M 15.98 9.98 h 1.04 v 1.04 h -1.04 Z M 15.98 10.98 h 1.04 v 1.04 h -1.04 Z M 16.98 4.98 h 1.04 v 1.04 h -1.04 Z M 16.98 5.98 h 1.04 v 1.04 h -1.04 Z M 16.98 6.98 h 1.04 v 1.04 h -1.04 Z M 16.98 7.98 h 1.04 v 1.04 h -1.04 Z M 16.98 8.98 h 1.04 v 1.04 h -1.04 Z M 16.98 9.98 h 1.04 v 1.04 h -1.04 Z M 16.98 10.98 h 1.04 v 1.04 h -1.04 Z M 17.98 5.98 h 1.04 v 1.04 h -1.04 Z M 17.98 6.98 h 1.04 v 1.04 h -1.04 Z M 17.98 7.98 h 1.04 v 1.04 h -1.04 Z M 17.98 8.98 h 1.04 v 1.04 h -1.04 Z M 17.98 9.98 h 1.04 v 1.04 h -1.04 Z M 17.98 10.98 h 1.04 v 1.04 h -1.04 Z M 18.98 6.98 h 1.04 v 1.04 h -1.04 Z M 18.98 7.98 h 1.04 v 1.04 h -1.04 Z M 18.98 8.98 h 1.04 v 1.04 h -1.04 Z M 18.98 9.98 h 1.04 v 1.04 h -1.04 Z M 18.98 10.98 h 1.04 v 1.04 h -1.04 Z M 19.98 7.98 h 1.04 v 1.04 h -1.04 Z M 19.98 8.98 h 1.04 v 1.04 h -1.04 Z M 19.98 9.98 h 1.04 v 1.04 h -1.04 Z" fill="#000000" stroke="#000000" stroke-width="1.43"/><path d="M 5.98 4.98 h 1.04 v 1.04 h -1.04 Z M 5.98 5.98 h 1.04 v 1.04 h -1.04 Z M 5.98 6.98 h 1.04 v 1.04 h -1.04 Z M 5.98 7.98 h 1.04 v 1.04 h -1.04 Z M 5.98 8.98 h 1.04 v 1.04 h -1.04 Z M 5.98 9.98 h 1.04 v 1.04 h -1.04 Z M 5.98 13.98 h 1.04 v 1.04 h -1.04 Z M 5.98 14.98 h 1.04 v 1.04 h -1.04 Z M 5.98 15.98 h 1.04 v 1.04 h -1.04 Z M 6.98 3.98 h 1.04 v 1.04 h -1.04 Z M 6.98 4.98 h 1.04 v 1.04 h -1.04 Z M 6.98 5.98 h 1.04 v 1.04 h -1.04 Z M 6.98 6.98 h 1.04 v 1.04 h -1.04 Z M 6.98 7.98 h 1.04 v 1.04 h -1.04 Z M 6.98 8.98 h 1.04 v 1.04 h -1.04 Z M 6.98 9.98 h 1.04 v 1.04 h -1.04 Z M 6.98 10.98 h 1.04 v 1.04 h -1.04 Z M 6.98 13.98 h 1.04 v 1.04 h -1.04 Z M 6.98 14.98 h 1.04 v 1.04 h -1.04 Z M 6.98 15.98 h 1.04 v 1.04 h -1.04 Z M 6.98 16.98 h 1.04 v 1.04 h -1.04 Z M 7.98 3.98 h 1.04 v 1.04 h -1.04 Z M 7.98 4.98 h 1.04 v 1.04 h -1.04 Z M 7.98 5.98 h 1.04 v 1.04 h -1.04 Z M 7.98 6.98 h 1.04 v 1.04 h -1.04 Z M 7.98 7.98 h 1.04 v 1.04 h -1.04 Z M 7.98 8.98 h 1.04 v 1.04 h -1.04 Z M 7.98 9.98 h 1.04 v 1.04 h -1.04 Z M 7.98 10.98 h 1.04 v 1.04 h -1.04 Z M 7.98 11.98 h 1.04 v 1.04 h -1.04 Z M 7.98 12.98 h 1.04 v 1.04 h -1.04 Z M 7.98 13.98 h 1.04 v 1.04 h -1.04 Z M 7.98 14.98 h 1.04 v 1.04 h -1.04 Z M 7.98 15.98 h 1.04 v 1.04 h -1.04 Z M 7.98 16.98 h 1.04 v 1.04 h -1.04 Z M 7.98 17.98 h 1.04 v 1.04 h -1.04 Z M 7.98 18.98 h 1.04 v 1.04 h -1.04 Z M 7.98 19.98 h 1.04 v 1.04 h -1.04 Z M 8.98 3.98 h 1.04 v 1.04 h -1.04 Z M 8.98 4.98 h 1.04 v 1.04 h -1.04 Z M 8.98 5.98 h 1.04 v 1.04 h -1.04 Z M 8.98 6.98 h 1.04 v 1.04 h -1.04 Z M 8.98 7.98 h 1.04 v 1.04 h -1.04 Z M 8.98 8.98 h 1.04 v 1.04 h -1.04 Z M 8.98 9.98 h 1.04 v 1.04 h -1.04 Z M 8.98 10.98 h 1.04 v 1.04 h -1.04 Z M 8.98 11.98 h 1.04 v 1.04 h -1.04 Z M 8.98 12.98 h 1.04 v 1.04 h -1.04 Z M 8.98 13.98 h 1.04 v 1.04 h -1.04 Z M 8.98 14.98 h 1.04 v 1.04 h -1.04 Z M 8.98 15.98 h 1.04 v 1.04 h -1.04 Z M 8.98 16.98 h 1.04 v 1.04 h -1.04 Z M 8.98 17.98 h 1.04 v 1.04 h -1.04 Z M 8.98 18.98 h 1.04 v 1.04 h -1.04 Z M 8.98 19.98 h 1.04 v 1.04 h -1.04 Z M 9.98 3.98 h 1.04 v 1.04 h -1.04 Z M 9.98 4.98 h 1.04 v 1.04 h -1.04 Z M 9.98 5.98 h 1.04 v 1.04 h -1.04 Z M 9.98 6.98 h 1.04 v 1.04 h -1.04 Z M 9.98 7.98 h 1.04 v 1.04 h -1.04 Z M 9.98 8.98 h 1.04 v 1.04 h -1.04 Z M 9.98 9.98 h 1.04 v 1.04 h -1.04 Z M 9.98 10.98 h 1.04 v 1.04 h -1.04 Z M 9.98 11.98 h 1.04 v 1.04 h -1.04 Z M 9.98 12.98 h 1.04 v 1.04 h -1.04 Z M 9.98 13.98 h 1.04 v 1.04 h -1.04 Z M 9.98 14.98 h 1.04 v 1.04 h -1.04 Z M 9.98 15.98 h 1.04 v 1.04 h -1.04 Z M 9.98 16.98 h 1.04 v 1.04 h -1.04 Z M 9.98 17.98 h 1.04 v 1.04 h -1.04 Z M 9.98 18.98 h 1.04 v 1.04 h -1.04 Z M 10.98 3.98 h 1.04 v 1.04 h -1.04 Z M 10.98 4.98 h 1.04 v 1.04 h -1.04 Z M 10.98 5.98 h 1.04 v 1.04 h -1.04 Z M 10.98 6.98 h 1.04 v 1.04 h -1.04 Z M 10.98 9.98 h 1.04 v 1.04 h -1.04 Z M 10.98 10.98 h 1.04 v 1.04 h -1.04 Z M 10.98 11.98 h 1.04 v 1.04 h -1.04 Z M 10.98 12.98 h 1.04 v 1.04 h -1.04 Z M 10.98 13.98 h 1.04 v 1.04 h -1.04 Z M 10.98 14.98 h 1.04 v 1.04 h -1.04 Z M 10.98 15.98 h 1.04 v 1.04 h -1.04 Z M 10.98 16.98 h 1.04 v 1.04 h -1.04 Z M 10.98 17.98 h 1.04 v 1.04 h -1.04 Z M 11.98 3.98 h 1.04 v 1.04 h -1.04 Z M 11.98 4.98 h 1.04 v 1.04 h -1.04 Z M 11.98 5.98 h 1.04 v 1.04 h -1.04 Z M 11.98 6.98 h 1.04 v 1.04 h -1.04 Z M 11.98 9.98 h 1.04 v 1.04 h -1.04 Z M 11.98 10.98 h 1.04 v 1.04 h -1.04 Z M 11.98 11.98 h 1.04 v 1.04 h -1.04 Z M 11.98 12.98 h 1.04 v 1.04 h -1.04 Z M 11.98 13.98 h 1.04 v 1.04 h -1.04 Z M 11.98 14.98 h 1.04 v 1.04 h -1.04 Z M 11.98 15.98 h 1.04 v 1.04 h -1.04 Z M 11.98 16.98 h 1.04 v 1.04 h -1.04 Z M 11.98 17.98 h 1.04 v 1.04 h -1.04 Z M 11.98 18.98 h 1.04 v 1.04 h -1.04 Z M 11.98 19.98 h 1.04 v 1.04 h -1.04 Z M 12.98 3.98 h 1.04 v 1.04 h -1.04 Z M 12.98 4.98 h 1.04 v 1.04 h -1.04 Z M 12.98 5.98 h 1.04 v 1.04 h -1.04 Z M 12.98 6.98 h 1.04 v 1.04 h -1.04 Z M 12.98 7.98 h 1.04 v 1.04 h -1.04 Z M 12.98 8.98 h 1.04 v 1.04 h -1.04 Z M 12.98 9.98 h 1.04 v 1.04 h -1.04 Z M 12.98 10.98 h 1.04 v 1.04 h -1.04 Z M 12.98 11.98 h 1.04 v 1.04 h -1.04 Z M 12.98 12.98 h 1.04 v 1.04 h -1.04 Z M 12.98 13.98 h 1.04 v 1.04 h -1.04 Z M 12.98 14.98 h 1.04 v 1.04 h -1.04 Z M 12.98 15.98 h 1.04 v 1.04 h -1.04 Z M 12.98 16.98 h 1.04 v 1.04 h -1.04 Z M 12.98 17.98 h 1.04 v 1.04 h -1.04 Z M 12.98 18.98 h 1.04 v 1.04 h -1.04 Z M 12.98 19.98 h 1.04 v 1.04 h -1.04 Z M 13.98 3.98 h 1.04 v 1.04 h -1.04 Z M 13.98 4.98 h 1.04 v 1.04 h -1.04 Z M 13.98 5.98 h 1.04 v 1.04 h -1.04 Z M 13.98 6.98 h 1.04 v 1.04 h -1.04 Z M 13.98 7.98 h 1.04 v 1.04 h -1.04 Z M 13.98 8.98 h 1.04 v 1.04 h -1.04 Z M 13.98 9.98 h 1.04 v 1.04 h -1.04 Z M 13.98 10.98 h 1.04 v 1.04 h -1.04 Z M 13.98 11.98 h 1.04 v 1.04 h -1.04 Z M 13.98 12.98 h 1.04 v 1.04 h -1.04 Z M 13.98 13.98 h 1.04 v 1.04 h -1.04 Z M 13.98 14.98 h 1.04 v 1.04 h -1.04 Z M 13.98 15.98 h 1.04 v 1.04 h -1.04 Z M 13.98 16.98 h 1.04 v 1.04 h -1.04 Z M 13.98 17.98 h 1.04 v 1.04 h -1.04 Z M 13.98 18.98 h 1.04 v 1.04 h -1.04 Z M 14.98 3.98 h 1.04 v 1.04 h -1.04 Z M 14.98 4.98 h 1.04 v 1.04 h -1.04 Z M 14.98 5.98 h 1.04 v 1.04 h -1.04 Z M 14.98 6.98 h 1.04 v 1.04 h -1.04 Z M 14.98 7.98 h 1.04 v 1.04 h -1.04 Z M 14.98 8.98 h 1.04 v 1.04 h -1.04 Z M 14.98 9.98 h 1.04 v 1.04 h -1.04 Z M 14.98 10.98 h 1.04 v 1.04 h -1.04 Z M 14.98 11.98 h 1.04 v 1.04 h -1.04 Z M 14.98 12.98 h 1.04 v 1.04 h -1.04 Z M 14.98 13.98 h 1.04 v 1.04 h -1.04 Z M 14.98 14.98 h 1.04 v 1.04 h -1.04 Z M 14.98 15.98 h 1.04 v 1.04 h -1.04 Z M 14.98 16.98 h 1.04 v 1.04 h -1.04 Z M 14.98 17.98 h 1.04 v 1.04 h -1.04 Z M 15.98 3.98 h 1.04 v 1.04 h -1.04 Z M 15.98 4.98 h 1.04 v 1.04 h -1.04 Z M 15.98 5.98 h 1.04 v 1.04 h -1.04 Z M 15.98 6.98 h 1.04 v 1.04 h -1.04 Z M 15.98 7.98 h 1.04 v 1.04 h -1.04 Z M 15.98 8.98 h 1.04 v 1.04 h -1.04 Z M 15.98 9.98 h 1.04 v 1.04 h -1.04 Z M 15.98 10.98 h 1.04 v 1.04 h -1.04 Z M 16.98 4.98 h 1.04 v 1.04 h -1.04 Z M 16.98 5.98 h 1.04 v 1.04 h -1.04 Z M 16.98 6.98 h 1.04 v 1.04 h -1.04 Z M 16.98 7.98 h 1.04 v 1.04 h -1.04 Z M 16.98 8.98 h 1.04 v 1.04 h -1.04 Z M 16.98 9.98 h 1.04 v 1.04 h -1.04 Z M 16.98 10.98 h 1.04 v 1.04 h -1.04 Z M 17.98 5.98 h 1.04 v 1.04 h -1.04 Z M 17.98 6.98 h 1.04 v 1.04 h -1.04 Z M 17.98 7.98 h 1.04 v 1.04 h -1.04 Z M 17.98 8.98 h 1.04 v 1.04 h -1.04 Z M 17.98 9.98 h 1.04 v 1.04 h -1.04 Z M 17.98 10.98 h 1.04 v 1.04 h -1.04 Z M 18.98 6.98 h 1.04 v 1.04 h -1.04 Z M 18.98 7.98 h 1.04 v 1.04 h -1.04 Z M 18.98 8.98 h 1.04 v 1.04 h -1.04 Z M 18.98 9.98 h 1.04 v 1.04 h -1.04 Z M 18.98 10.98 h 1.04 v 1.04 h -1.04 Z M 19.98 7.98 h 1.04 v 1.04 h -1.04 Z M 19.98 8.98 h 1.04 v 1.04 h -1.04 Z M 19.98 9.98 h 1.04 v 1.04 h -1.04 Z" fill="#FFFFFF"/></g><g transform="translate(186 78) rotate(-135) scale(1.0)"><path d="M 0 -52 L 11 -30 L 11 -4 L -11 -4 L -11 -30 Z" fill="#FFFFFF" stroke="#000000" stroke-width="11" stroke-linejoin="round"/><path d="M 0 -52 L 11 -30 L 11 -4 L -11 -4 L -11 -30 Z" fill="#FFFFFF" stroke="#FFFFFF" stroke-width="3" stroke-linejoin="round"/><line x1="0" y1="-38" x2="0" y2="-10" stroke="#000000" stroke-width="3.5" stroke-linecap="round"/><rect x="-22" y="-6" width="44" height="11" rx="5" fill="#FFFFFF" stroke="#000000" stroke-width="8" stroke-linejoin="round" paint-order="stroke"/><rect x="-6" y="4" width="12" height="28" rx="4" fill="#FFFFFF" stroke="#000000" stroke-width="8" stroke-linejoin="round" paint-order="stroke"/><circle cx="0" cy="36" r="7" fill="#FFFFFF" stroke="#000000" stroke-width="8" stroke-linejoin="round" paint-order="stroke"/><rect x="-22" y="-6" width="44" height="11" rx="5" fill="#FFFFFF"/><rect x="-6" y="4" width="12" height="28" rx="4" fill="#FFFFFF"/></g></svg>