<svg xmlns="http://www.w3.org/2000/svg" viewBox="0 0 256 256" width="256" height="256"><rect width="256" height="256" fill="#000000"/><line x1="44" y1="70" x2="44" y2="196" stroke="#FFFFFF" stroke-linecap="round" stroke-linejoin="round" fill="none" stroke-width="12"/><line x1="212" y1="70" x2="212" y2="196" stroke="#FFFFFF" stroke-linecap="round" stroke-linejoin="round" fill="none" stroke-width="12"/><path d="M 66 200 L 190 158 L 66 116 L 142 90" stroke="#FFFFFF" stroke-linecap="round" stroke-linejoin="round" fill="none" stroke-width="7" stroke-dasharray="10 12"/><g transform="translate(162 82) rotate(70) scale(0.8)"><path d="M 0 -52 L 11 -30 L 11 -4 L -11 -4 L -11 -30 Z" fill="#FFFFFF" stroke="#FFFFFF" stroke-width="3" stroke-linejoin="round"/><line x1="0" y1="-38" x2="0" y2="-10" stroke="#000000" stroke-width="3.5" stroke-linecap="round"/><rect x="-22" y="-6" width="44" height="11" rx="5" fill="#FFFFFF" /><rect x="-6" y="4" width="12" height="28" rx="4" fill="#FFFFFF" /><circle cx="0" cy="36" r="7" fill="#FFFFFF" /><rect x="-22" y="-6" width="44" height="11" rx="5" fill="#FFFFFF"/><rect x="-6" y="4" width="12" height="28" rx="4" fill="#FFFFFF"/></g></svg>