<svg xmlns="http://www.w3.org/2000/svg" viewBox="0 0 256 256" width="256" height="256"><rect width="256" height="256" fill="#000000"/><circle cx="128" cy="128" r="60" fill="none" stroke="#FFFFFF" stroke-width="8"/><circle cx="128" cy="128" r="78" fill="none" stroke="#FFFFFF" stroke-width="7"/><circle cx="128" cy="128" r="96" fill="none" stroke="#FFFFFF" stroke-width="6"/><circle cx="196" cy="196" r="18" fill="#000000"/><line x1="196" y1="182" x2="196" y2="210" stroke="#FFFFFF" stroke-width="8" stroke-linecap="round"/><path d="M 203.1 201.6 L 196.0 210.0 L 188.9 201.6" fill="none" stroke="#FFFFFF" stroke-width="8" stroke-linecap="round" stroke-linejoin="round"/><g transform="translate(128 132) scale(1.1)"><circle cx="0" cy="-8" r="32" fill="#FFFFFF" /><rect x="-20" y="8" width="40" height="28" rx="7" fill="#FFFFFF" /><rect x="-20" y="8" width="40" height="14" fill="#FFFFFF"/><circle cx="0" cy="-8" r="30" fill="#FFFFFF"/><circle cx="-12" cy="-6" r="9" fill="#000000"/><circle cx="12" cy="-6" r="9" fill="#000000"/><line x1="-7" y1="22" x2="-7" y2="34" stroke="#000000" stroke-width="5" stroke-linecap="round"/><line x1="7" y1="22" x2="7" y2="34" stroke="#000000" stroke-width="5" stroke-linecap="round"/><path d="M -5 10 L 5 10 L 0 2 Z" fill="#000000" stroke="#000000" stroke-width="3" stroke-linejoin="round"/></g></svg>